# xmcd
#
# Track frame offsets:
#	150
#	16972
#	36678
#	53496
#	69094
#	91402
#	107456
#	128342
#	144590
#	164629
#	183642
#	205991
#	223148
#	241849
#	260244
#	284807
#	305763
#
# Disc length: 4326 seconds
#
# Revision: 0
# Processed by: cddbd v1.5.2PL0 Copyright (c) Steve Scherf et al.
# Submitted via: EasyCDDAExtractor 11.0.2.1
#
DISCID=0510e411
DTITLE=Artista - Álbum
DYEAR=1900
DGENRE=
TTITLE0=Nome da faixa 1
TTITLE1=Nome da faixa 2
TTITLE2=Nome da faixa 3
TTITLE3=Nome da faixa 4
TTITLE4=Nome da faixa 5
TTITLE5=Nome da faixa 6
TTITLE6=Nome da faixa 7
TTITLE7=Nome da faixa 8
TTITLE8=Nome da faixa 9
TTITLE9=Nome da faixa 10
TTITLE10=Nome da faixa 11
TTITLE11=Nome da faixa 12
TTITLE12=Nome da faixa 13
TTITLE13=Nome da faixa 14
TTITLE14=Nome da faixa 15
TTITLE15=Nome da faixa 16
TTITLE16=Nome da faixa 17
EXTD=
EXTT0=
EXTT1=
EXTT2=
EXTT3=
EXTT4=
EXTT5=
EXTT6=
EXTT7=
EXTT8=
EXTT9=
EXTT10=
EXTT11=
EXTT12=
EXTT13=
EXTT14=
EXTT15=
EXTT16=
PLAYORDER=
